PathFileType	4	(X/Y/Z)	C:\Users\Basilio\Documents\Thesis Gigler\squatting_fais\c3dfiles\058\SLS_back_pre4\markers_experimental.trc
DataRate	CameraRate	NumFrames	NumMarkers	Units	OrigDataRate	OrigDataStartFrame	OrigNumFrames
200.000000	200.000000	4	61	mm	200.000000	959	1279
Frame#	Time	FHD			LBHD			RBHD			C7			T10			CLAV			LSHO			LUUPA			LMUPA			LDUPA			LLEP			LMEP			LRAD			LUL			LRFIN			RSHO			RUPA1			RMUPA			RDUPA			RLEP			RMEP			RRAD			RUL			RUFIN			LASI			RASI			USACR			LSACR			RSACR			LTHI1			LTHI2			LTHI3			LTHI4			LLFC			LMFC			LTIB1			LTIB2			LTIB3			LTIB4			LLMAL			LMMAL			LHEE			LMT1			LMT2			LMT5			RTHI			RTHI2			RTHI3			RTHI4			RLFC			RMFC			RTIB1			RTIB2			RTIB3			RTIB4			RLMAL			RMMAL			RHEE			RMT1			RMT2			RMT5			
		X1	Y1	Z1	X2	Y2	Z2	X3	Y3	Z3	X4	Y4	Z4	X5	Y5	Z5	X6	Y6	Z6	X7	Y7	Z7	X8	Y8	Z8	X9	Y9	Z9	X10	Y10	Z10	X11	Y11	Z11	X12	Y12	Z12	X13	Y13	Z13	X14	Y14	Z14	X15	Y15	Z15	X16	Y16	Z16	X17	Y17	Z17	X18	Y18	Z18	X19	Y19	Z19	X20	Y20	Z20	X21	Y21	Z21	X22	Y22	Z22	X23	Y23	Z23	X24	Y24	Z24	X25	Y25	Z25	X26	Y26	Z26	X27	Y27	Z27	X28	Y28	Z28	X29	Y29	Z29	X30	Y30	Z30	X31	Y31	Z31	X32	Y32	Z32	X33	Y33	Z33	X34	Y34	Z34	X35	Y35	Z35	X36	Y36	Z36	X37	Y37	Z37	X38	Y38	Z38	X39	Y39	Z39	X40	Y40	Z40	X41	Y41	Z41	X42	Y42	Z42	X43	Y43	Z43	X44	Y44	Z44	X45	Y45	Z45	X46	Y46	Z46	X47	Y47	Z47	X48	Y48	Z48	X49	Y49	Z49	X50	Y50	Z50	X51	Y51	Z51	X52	Y52	Z52	X53	Y53	Z53	X54	Y54	Z54	X55	Y55	Z55	X56	Y56	Z56	X57	Y57	Z57	X58	Y58	Z58	X59	Y59	Z59	X60	Y60	Z60	X61	Y61	Z61	

960	4.795	-186.402084350586	1773.48486328125	-621.6356811523439	-340.2412109375001	1730.488525390625	-705.9912109375001	-166.4409332275391	1784.107421875	-764.2428588867189	-359.7919311523438	1580.3603515625	-722.0444946289064	-416.2142639160157	1284.31982421875	-727.5181274414064	-208.0627746582032	1519.762451171875	-702.7471313476564	-215.1476287841797	1579.492309570313	-850.2081298828127	-60.66992568969728	1527.653564453125	-958.2103271484377	-38.49169158935548	1563.38037109375	-929.5083007812502	8.674869537353517	1529.623901367188	-947.5000000000002	83.08737945556642	1535.153686523438	-928.2529907226565	88.12791442871095	1477.084594726563	-896.873474121094	344.3832397460938	1553.361938476563	-815.5447998046877	348.3794555664063	1581.061401367188	-892.420593261719	441.8895263671876	1583.707275390625	-810.555603027344	-237.0294494628907	1579.466430664063	-556.6019897460939	-83.99576568603517	1496.917846679688	-448.013885498047	-61.62162399291994	1535.66796875	-471.6835021972657	-15.18852996826172	1506.849365234375	-449.7972412109376	52.79075622558595	1500.519897460938	-457.8380126953126	60.75983047485353	1442.327758789063	-510.183807373047	nan	nan	nan	319.5737304687501	1552.067260742188	-465.526336669922	410.1361694335939	1575.35546875	-532.7497558593751	-277.4581604003907	1051.564208984375	-862.766296386719	-275.8707580566407	1049.265869140625	-623.7158813476564	-450.4754943847657	1171.855102539063	-730.2165527343751	-462.7241821289064	1142.146728515625	-758.9093017578126	-460.1466674804689	1140.166870117188	-700.9594116210939	-339.6961975097657	783.9780273437502	-956.7644042968752	-308.1638488769532	704.4212036132814	-962.4576416015627	-261.8840332031251	703.1768798828126	-944.9818115234377	-336.6865539550782	651.5557861328126	-956.8504028320315	-355.4703369140626	569.1313476562501	-945.3466796875002	-314.3515625000001	543.2084350585939	-823.4246826171877	-438.5580139160157	466.0651245117189	-899.2073364257815	-497.9682617187501	514.5040283203126	-930.3960571289065	-488.248748779297	472.2427368164064	-919.781677246094	-557.6140136718751	441.7445373535157	-880.818786621094	-754.1356201171876	454.1776428222657	-833.1577148437502	-714.5153198242189	404.4077453613282	-764.5230712890626	-744.4967041015626	500.896697998047	-761.4384155273439	-820.106140136719	289.1553039550782	-773.848571777344	-835.4066162109377	296.7453308105469	-817.9862060546877	-861.6806640625002	357.2629394531251	-846.7456665039065	-377.0769653320313	849.596374511719	-556.8024902343751	-334.4870605468751	798.6787109375002	-556.3240966796876	-301.3538513183594	801.182067871094	-557.2591552734376	-351.0127868652344	719.7497558593751	-580.3265991210939	-324.4177551269532	544.0482177734376	-609.6032104492189	-286.0674133300782	545.1774291992189	-739.2360229492189	-282.7169799804688	349.3267211914063	-711.1898193359376	-329.6716003417969	268.3890380859376	-654.5229492187501	-293.6725158691407	262.5779113769532	-686.0426635742189	-306.1740417480469	222.8732147216797	-725.2930908203126	-374.4815063476563	114.4714126586914	-696.9647216796876	-341.0317993164063	143.3185272216797	-781.5214843750002	-438.2625732421876	101.4906692504883	-763.9678344726564	-228.9720001220704	60.78921127319337	-774.415710449219	-224.4138488769532	58.16316604614259	-722.1959228515626	-273.2150573730469	25.93766784667969	-671.6101074218751	
961	4.8	-186.8251190185547	1775.0732421875	-621.2093505859376	-341.3948364257813	1731.633056640625	-705.5634155273439	-166.9885559082032	1785.50244140625	-764.0094604492189	-360.2481079101563	1581.112548828125	-721.7815551757814	-416.0816345214845	1285.385375976563	-727.2176513671876	-208.3206329345704	1520.8525390625	-702.6274414062501	-215.4457702636719	1580.463256835938	-850.2756958007815	-61.18055343627931	1528.5439453125	-958.260925292969	-38.9216537475586	1564.2958984375	-929.5220947265627	8.027615547180178	1530.4248046875	-947.642517089844	82.31311798095705	1535.950439453125	-928.1508789062502	87.50660705566408	1478.198852539063	-896.9001464843752	343.7399902343751	1554.1748046875	-815.823913574219	347.7085266113282	1581.848876953125	-892.4841918945315	441.4167785644532	1584.27490234375	-810.6801757812502	-237.2547302246094	1580.541748046875	-556.3854980468751	-84.09224700927736	1497.89599609375	-447.7683410644532	-62.10411071777345	1536.331787109375	-471.5821838378907	-15.35838508605957	1507.529418945313	-449.5384521484376	52.48765945434572	1501.016967773438	-458.6142578125001	60.54336166381837	1443.086669921875	-510.1260681152345	nan	nan	nan	319.3953247070313	1552.416137695313	-465.6645507812501	410.2410888671876	1576.272216796875	-532.2027587890626	-276.6724243164063	1053.121826171875	-862.7689208984377	-275.1557006835938	1050.253662109375	-623.1553344726564	-450.0748901367189	1172.379272460938	-729.8166503906251	-462.3919982910157	1143.13037109375	-758.6368408203126	-459.7703857421876	1141.021850585938	-700.5618286132814	-339.3583984375001	785.376892089844	-956.8497314453127	-307.6413574218751	705.4852905273439	-962.518981933594	-261.1950683593751	704.4335937500001	-945.2270507812502	-335.9529113769532	652.6898193359376	-957.0457153320315	-354.8624572753907	570.3059082031251	-945.7564697265627	-312.3111877441407	546.0195922851564	-823.5828247070315	-438.980682373047	466.7211303710939	-898.8413696289065	-497.4844665527345	516.0114135742189	-930.774841308594	-487.6211547851564	473.7473754882814	-920.1860961914065	-557.2648925781251	443.1979064941407	-881.048767089844	-753.3619384765626	455.5785522460939	-833.5332641601565	-713.7523803710939	405.8286437988282	-765.0401000976564	-743.6773681640626	502.349822998047	-761.6367797851564	-819.1360473632815	290.4400024414063	-774.6367797851565	-834.670837402344	298.1412048339844	-818.476501464844	-861.083679199219	358.8259277343751	-847.1337890625002	-377.3279113769532	850.765808105469	-556.8029174804689	-335.1571044921876	799.2163696289065	-556.3450927734376	-301.8221130371094	801.5255126953127	-557.2891845703126	-351.7099609375001	720.9035034179689	-580.5832519531251	-326.0424499511719	544.4987792968751	-609.8927001953126	-287.4896240234376	545.4502563476564	-739.4075317382814	-283.9431152343751	349.5902404785157	-711.0584106445314	-330.3710021972657	268.9596862792969	-654.5014038085939	-294.7177124023438	262.9655761718751	-685.8421630859376	-306.5330810546876	223.0896148681641	-725.1192626953126	-374.9414062500001	114.6039428710938	-696.8903198242189	-341.1588745117188	143.4585113525391	-781.3904418945315	-438.2843017578126	101.5188674926758	-763.9140014648439	-228.9867095947266	60.64570236206056	-774.4486083984377	-224.4587097167969	58.10767364501955	-722.1804809570314	-273.2072753906251	25.96464157104493	-671.6092529296876	
962	4.805	-187.3963775634766	1775.932739257813	-621.4327392578126	-341.5259704589844	1732.717041015625	-705.2989501953126	-167.52294921875	1786.848754882813	-763.8356323242189	-360.6408081054688	1582.372436523438	-721.6465454101564	-415.840301513672	1286.177124023438	-726.9555664062501	-208.6592559814454	1522.075927734375	-702.5559692382814	-216.0466918945313	1581.604614257813	-850.2807617187502	-61.90310287475587	1529.509033203125	-958.2801513671877	-39.68566894531251	1565.101318359375	-929.5695800781252	7.172040939331056	1531.470092773438	-947.5739746093752	81.70309448242189	1536.8095703125	-928.2784423828127	87.30781555175783	1479.089233398438	-897.1758422851565	343.1213073730469	1554.843505859375	-815.993347167969	347.1826171875001	1582.686401367188	-892.7222290039065	440.8924255371095	1584.928588867188	-810.8626098632815	-237.6431427001954	1581.492919921875	-556.1917724609376	-84.18104553222658	1498.65380859375	-447.6528625488282	-62.20109176635744	1536.919921875	-471.5194396972657	-15.41220474243164	1508.41162109375	-449.4344482421876	52.20375061035158	1501.652099609375	-457.389617919922	60.16761016845705	1444.020263671875	-510.2697143554689	nan	nan	nan	319.1026000976563	1552.90234375	-465.6049804687501	409.990203857422	1576.729614257813	-532.2242431640626	-276.0321350097657	1054.424072265625	-862.756042480469	-274.0188903808594	1051.895141601563	-622.5987548828126	-449.4030761718751	1173.233154296875	-729.5746459960939	-462.0476684570314	1143.947875976563	-758.2673950195314	-460.1498107910157	1141.881713867188	-699.9598388671876	-338.5979614257813	786.5281372070315	-957.0013427734377	-307.1662292480469	706.9739379882814	-962.7722167968752	-260.6377258300782	705.7181396484376	-945.4170532226565	-335.2088928222657	654.0965576171876	-957.383972167969	-354.2334594726563	571.6320800781251	-946.0938110351565	-311.5130615234376	547.0000610351564	-823.974792480469	-438.4434814453126	468.1596984863282	-899.2810668945315	-496.9788818359376	517.3042602539064	-931.1851806640627	-487.1502380371095	474.9717712402345	-920.5208129882815	-556.6694946289064	444.1396789550782	-881.4055175781252	-752.8857421875001	457.0194702148439	-833.9089355468752	-713.3527221679689	406.9761047363282	-765.4658813476564	-742.9111328125001	503.5522766113282	-761.9527587890626	-818.6280517578127	291.9204101562501	-775.2664184570315	-834.2940063476565	299.4592895507813	-819.224548339844	-860.7489013671877	360.2702026367188	-847.6106567382815	-377.3445129394532	851.5493164062502	-557.0067138671876	-335.5811462402344	800.0744628906252	-556.2505493164064	-302.8294677734376	802.0676879882815	-556.9234008789064	-352.7627868652344	721.5980224609376	-580.5547485351564	-327.8965148925782	545.1225585937501	-610.1090087890626	-289.0689392089844	545.7709350585939	-739.5640869140626	-284.9186096191407	350.0292358398438	-711.1081542968751	-331.2905883789063	269.1464843750001	-654.4821777343751	-295.2924194335938	263.1836853027344	-685.5632934570314	-307.1446228027344	223.366195678711	-724.9571533203126	-375.1404724121094	114.6947860717774	-696.8630371093751	-341.3131713867188	143.5433349609375	-781.3643188476565	-438.4309387207032	101.4479446411133	-763.8638916015626	-229.2041320800782	61.18443679809572	-774.4866333007815	-223.271713256836	59.50443267822267	-722.6655273437501	-273.2166137695313	25.91005325317384	-671.6177368164064	
963	4.81	-188.0896453857422	1777.5224609375	-621.0353393554689	-341.9555664062501	1733.880249023438	-705.1719360351564	-168.4614715576172	1788.228637695313	-763.6791992187501	-361.1206970214844	1583.206665039063	-721.4099121093751	-415.691864013672	1287.083129882813	-726.6506958007814	-209.0423278808594	1523.181396484375	-702.4624633789064	-216.6097412109376	1582.540771484375	-850.3208007812502	-62.4108352661133	1530.394653320313	-958.326599121094	-40.21269607543946	1566.138916015625	-929.701599121094	6.668165206909181	1532.31787109375	-947.649841308594	81.16754150390626	1537.579711914063	-928.3863525390627	86.61093902587892	1480.155151367188	-897.3327636718752	342.4418945312501	1555.533813476563	-816.2481079101565	346.4314575195313	1583.353637695313	-892.7368774414065	440.3377380371095	1585.500244140625	-811.018005371094	-238.0693817138672	1582.537841796875	-556.0463867187501	-84.60141754150392	1499.344482421875	-447.426727294922	-62.26685333251955	1538.066284179688	-471.0825195312501	-15.65568637847901	1509.020751953125	-449.3317871093751	52.00025939941408	1502.48779296875	-457.2145385742189	59.91439056396486	1444.695068359375	-510.2630920410157	nan	nan	nan	319.0896911621094	1553.633056640625	-465.4812622070314	410.0463256835939	1577.32861328125	-532.0997924804689	-275.4525146484376	1055.685302734375	-862.6844482421877	-274.1897277832032	1052.21826171875	-622.9307861328126	-449.1551818847657	1174.20751953125	-729.2065429687501	-461.5211791992189	1144.664916992188	-757.8694458007814	-458.7277221679689	1142.454711914063	-700.0016479492189	-337.8372802734376	787.8909912109377	-957.1033935546877	-306.5872497558594	708.2190551757814	-962.8653564453127	-259.8471984863282	707.0291137695314	-945.550476074219	-334.6625061035157	655.4005126953126	-957.5472412109377	-353.6677856445313	572.8587036132814	-946.445007324219	-310.9750671386719	547.9586181640626	-824.2768554687502	-437.2814941406251	469.7799682617189	-900.2065429687502	-496.1743469238282	518.4191894531251	-931.5369262695315	-486.4256896972657	476.2442932128907	-920.914978027344	-555.8656616210939	445.4813537597657	-881.9578247070315	-752.3560791015626	458.3919067382814	-834.2881469726565	-712.9524536132814	408.1493225097657	-765.8909301757814	-742.3894653320314	504.7578735351564	-762.2587280273439	-818.3992919921877	293.0806579589844	-775.646911621094	-833.6492309570315	300.9022521972657	-819.736755371094	-860.298522949219	361.6034240722657	-847.9813232421877	-377.6321411132813	852.6066894531252	-557.1383056640626	-336.1496276855469	800.8739013671877	-556.2072753906251	-303.2446594238282	802.4497070312502	-557.1063842773439	-353.6241149902344	722.2821655273439	-580.8109130859376	-329.3900756835938	545.3640747070314	-610.2748413085939	-290.6534118652344	546.2194213867189	-739.8435668945314	-285.7555541992188	350.4800720214844	-711.1539916992189	-332.2230529785157	269.4745483398438	-654.5413818359376	-295.8849182128907	263.6871643066407	-685.5288696289064	-307.7384948730469	223.578353881836	-724.8777465820314	-375.2257690429688	114.7312164306641	-696.9056396484376	-341.4422302246094	143.6414337158203	-781.319274902344	-438.4134826660157	101.4929122924805	-763.8308105468751	-229.0982971191407	60.82335281372072	-774.3991699218752	-224.3927612304688	58.13816833496095	-722.1995849609376	-273.2121276855469	25.91012382507325	-671.6149291992189	
